<svg width="28" height="24" viewBox="0 0 28 24" fill="none" xmlns="http://www.w3.org/2000/svg">
<path fill-rule="evenodd" clip-rule="evenodd" d="M3.0738 0.105663C2.85809 0.158669 2.45105 0.316409 2.16927 0.456338C1.73669 0.671085 1.58193 0.786163 1.17494 1.19598C0.628347 1.74642 0.406615 2.09064 0.167072 2.76058C0.00906552 3.2025 0 3.26958 0 4.00101C0 4.73244 0.00906552 4.79952 0.167072 5.24144C0.406029 5.90973 0.627494 6.25379 1.1751 6.80722C1.6014 7.23804 1.7217 7.32555 2.21497 7.56323C2.52176 7.7111 2.94549 7.86996 3.15656 7.9163C3.69713 8.0349 4.446 8.02509 4.96396 7.89263C6.05667 7.6132 6.7848 7.07801 7.46796 6.05211C7.80248 5.54978 7.92785 5.40798 8.19555 5.22923C8.74647 4.86133 8.93396 4.82757 10.4251 4.82757C11.9163 4.82757 12.1038 4.86133 12.6547 5.22923C12.9224 5.40798 13.0478 5.54978 13.3823 6.05211C13.9146 6.85132 14.3949 7.28428 15.1323 7.6293C17.1065 8.55308 19.493 7.69948 20.4307 5.73413C20.9571 4.63096 20.9571 3.37106 20.4307 2.2679C19.493 0.302544 17.1065 -0.551055 15.1323 0.372722C14.3959 0.717319 13.9145 1.15076 13.3848 1.94618C12.94 2.61415 12.6754 2.84228 12.1049 3.04993C11.8239 3.15216 11.6472 3.16917 10.6543 3.18965C8.64755 3.23097 8.2196 3.06321 7.46407 1.93871C6.78053 0.921453 6.05049 0.38728 4.96396 0.109395C4.42547 -0.0283472 3.62589 -0.0298937 3.0738 0.105663ZM17.6242 4.00101V4.80091H16.8243H16.0244V4.00101V3.20111H16.8243H17.6242V4.00101ZM9.46526 8.10967C6.99336 8.74793 5.72552 11.4419 6.81876 13.7331C7.75651 15.6985 10.143 16.5521 12.1172 15.6283C12.8545 15.2833 13.3349 14.8503 13.8672 14.0511C14.2017 13.5488 14.327 13.407 14.5947 13.2282C15.1457 12.8603 15.3332 12.8266 16.8243 12.8266C18.3155 12.8266 18.503 12.8603 19.0539 13.2282C19.3216 13.407 19.447 13.5488 19.7815 14.0511C20.4647 15.077 21.1928 15.6122 22.2855 15.8916C22.8035 16.0241 23.5523 16.0339 24.0929 15.9153C24.304 15.869 24.7277 15.7101 25.0345 15.5622C25.5278 15.3245 25.6481 15.237 26.0744 14.8062C26.622 14.2528 26.8434 13.9087 27.0824 13.2404C27.2404 12.7985 27.2495 12.7314 27.2495 12C27.2495 11.2686 27.2404 11.2015 27.0824 10.7596C26.8426 10.0889 26.6211 9.7453 26.0716 9.19209C25.6441 8.76169 25.5209 8.67215 25.0317 8.4364C24.7264 8.28932 24.304 8.13105 24.0929 8.08471C23.5523 7.96611 22.8035 7.97592 22.2855 8.10839C21.1942 8.3875 20.4646 8.92322 19.784 9.94517C19.3392 10.6131 19.0746 10.8413 18.5041 11.0489C18.2231 11.1511 18.0464 11.1682 17.0535 11.1886C15.0467 11.23 14.6188 11.0622 13.8633 9.9377C13.1797 8.92044 12.4497 8.38627 11.3632 8.10839C10.8082 7.96648 10.0178 7.96702 9.46526 8.10967ZM11.225 12V12.7999H10.4251H9.62524V12V11.2001H10.4251H11.225V12ZM3.0738 16.1036C2.85809 16.1567 2.45105 16.3144 2.16927 16.4543C1.73669 16.6691 1.58193 16.7841 1.17494 17.194C0.628347 17.7444 0.406615 18.0886 0.167072 18.7586C0.00906552 19.2005 0 19.2676 0 19.999C0 20.7304 0.00906552 20.7975 0.167072 21.2394C0.406029 21.9077 0.627494 22.2518 1.1751 22.8052C1.6014 23.236 1.7217 23.3235 2.21497 23.5612C2.52176 23.7091 2.94549 23.8679 3.15656 23.9143C3.69713 24.0329 4.446 24.0231 4.96396 23.8906C6.05667 23.6112 6.7848 23.076 7.46796 22.0501C7.80248 21.5478 7.92785 21.406 8.19555 21.2272C8.74647 20.8593 8.93396 20.8256 10.4251 20.8256C11.9163 20.8256 12.1038 20.8593 12.6547 21.2272C12.9224 21.406 13.0478 21.5478 13.3823 22.0501C13.9146 22.8493 14.3949 23.2823 15.1323 23.6273C17.1065 24.5511 19.493 23.6975 20.4307 21.7321C20.9571 20.6289 20.9571 19.369 20.4307 18.2659C19.493 16.3005 17.1065 15.4469 15.1323 16.3707C14.3959 16.7153 13.9145 17.1487 13.3848 17.9442C12.94 18.6121 12.6754 18.8403 12.1049 19.0479C11.8239 19.1501 11.6472 19.1671 10.6543 19.1876C8.64755 19.229 8.2196 19.0612 7.46407 17.9367C6.78053 16.9194 6.05049 16.3853 4.96396 16.1074C4.42547 15.9696 3.62589 15.9681 3.0738 16.1036ZM17.6242 19.999V20.7989H16.8243H16.0244V19.999V19.1991H16.8243H17.6242V19.999Z" fill="white"/>
</svg>
