<svg width="143" height="22" viewBox="0 0 143 22" fill="none" xmlns="http://www.w3.org/2000/svg">
<path d="M10.2648 21.5391C3.29342 21.515 5.28255e-05 19.3515 0.168327 14.111H6.15409C6.2262 15.4812 7.38009 16.3226 10.2648 16.3466C12.8129 16.3706 13.9909 15.6495 13.9909 14.7119C13.9909 14.0629 13.6303 13.3898 11.6591 13.1013L9.06283 12.6926C5.2406 12.0676 0.649111 11.6109 0.649111 6.44245C0.649111 2.45194 3.8944 -5.55254e-05 10.3129 -5.55254e-05C16.1063 -5.55254e-05 20.1449 1.61057 20.0247 7.37998H14.087C13.8466 6.03378 12.7168 5.19241 10.1686 5.19241C7.95703 5.19241 7.04354 5.86551 7.04354 6.779C7.04354 7.35594 7.40413 8.05307 8.94263 8.29347L11.0821 8.65406C15.0967 9.32715 20.6016 9.44735 20.6016 14.9764C20.6016 19.3755 17.1881 21.5631 10.2648 21.5391ZM36.3575 0.673043H43.0163V20.866H36.3575V13.5581H28.5207V20.866H21.8618V0.673043H28.5207V7.98096H36.3575V0.673043ZM55.7905 21.5391C48.8432 21.5391 44.3479 17.236 44.3479 10.7695C44.3479 4.30296 48.8432 -5.55254e-05 55.7905 -5.55254e-05C62.7378 -5.55254e-05 67.2332 4.30296 67.2332 10.7695C67.2332 17.236 62.7378 21.5391 55.7905 21.5391ZM55.7905 15.7937C58.4348 15.7937 60.6224 13.9667 60.6224 10.7695C60.6224 7.57229 58.4348 5.74531 55.7905 5.74531C53.1462 5.74531 50.9586 7.57229 50.9586 10.7695C50.9586 13.9667 53.1462 15.7937 55.7905 15.7937ZM68.5692 20.866V0.673043H80.0359C85.5409 0.673043 88.8102 3.12504 88.8102 8.5579C88.8102 13.9908 85.5409 16.4428 80.06 16.4428H75.2281V20.866H68.5692ZM75.2281 10.9137H79.459C81.0696 10.9137 82.1033 10.1204 82.1033 8.5579C82.1033 6.99535 81.0696 6.20206 79.483 6.20206H75.2281V10.9137ZM92.1415 21.2506C90.3386 21.2506 88.8241 19.7602 88.8241 17.9813C88.8241 16.2024 90.3386 14.7119 92.1415 14.7119C93.9445 14.7119 95.4589 16.2024 95.4589 17.9813C95.4589 19.7602 93.9445 21.2506 92.1415 21.2506ZM108.12 21.5391C101.317 21.5391 96.774 17.236 96.774 10.7695C96.774 4.30296 101.317 -5.55254e-05 108.12 -5.55254e-05C113.049 -5.55254e-05 118.097 2.16347 118.77 8.9906H112.423C111.871 6.779 110.308 5.74531 108.12 5.74531C105.476 5.74531 103.385 7.71653 103.385 10.7695C103.385 13.8225 105.476 15.7937 108.12 15.7937C110.308 15.7937 111.871 14.76 112.423 12.5003H118.77C118.097 19.3755 113.097 21.5391 108.12 21.5391ZM131.429 21.5391C124.482 21.5391 119.987 17.236 119.987 10.7695C119.987 4.30296 124.482 -5.55254e-05 131.429 -5.55254e-05C138.377 -5.55254e-05 142.872 4.30296 142.872 10.7695C142.872 17.236 138.377 21.5391 131.429 21.5391ZM131.429 15.7937C134.074 15.7937 136.261 13.9667 136.261 10.7695C136.261 7.57229 134.074 5.74531 131.429 5.74531C128.785 5.74531 126.598 7.57229 126.598 10.7695C126.598 13.9667 128.785 15.7937 131.429 15.7937Z" fill="black"/>
</svg>
